<svg width="18" height="11" viewBox="0 0 18 11" fill="none" xmlns="http://www.w3.org/2000/svg">
<path d="M17.8201 9.66656L16.9184 10.5682C16.7982 10.6886 16.6598 10.7487 16.5034 10.7487C16.3473 10.7487 16.2089 10.6886 16.0887 10.5682L9.0001 3.47996L1.91176 10.568C1.79154 10.6885 1.65319 10.7485 1.4969 10.7485C1.34054 10.7485 1.20219 10.6885 1.08204 10.568L0.180424 9.6663C0.060015 9.54615 0 9.4078 0 9.25144C0 9.09521 0.0602045 8.95686 0.180424 8.83671L8.58523 0.431708C8.70539 0.311489 8.8438 0.25141 9.0001 0.25141C9.15639 0.25141 9.29455 0.311489 9.41464 0.431708L17.8201 8.83671C17.9403 8.95693 18 9.09528 18 9.25144C18 9.4078 17.9403 9.54615 17.8201 9.66656Z" fill="white"/>
</svg>
