<svg width="95" height="111" viewBox="0 0 95 111" fill="none" xmlns="http://www.w3.org/2000/svg">
<path d="M1.31242 79V53.8H5.99242V79H1.31242ZM11.679 59.092C10.887 59.092 10.215 58.828 9.66302 58.3C9.13502 57.748 8.87102 57.076 8.87102 56.284C8.87102 55.516 9.13502 54.868 9.66302 54.34C10.215 53.788 10.887 53.512 11.679 53.512C12.447 53.512 13.095 53.788 13.623 54.34C14.175 54.868 14.451 55.516 14.451 56.284C14.451 57.076 14.175 57.748 13.623 58.3C13.095 58.828 12.447 59.092 11.679 59.092ZM9.33902 61H14.019V79H9.33902V61ZM16.957 53.8H21.673V62.08C22.945 61.168 24.457 60.712 26.209 60.712C27.889 60.712 29.437 61.132 30.853 61.972C32.269 62.788 33.397 63.916 34.237 65.356C35.077 66.772 35.497 68.32 35.497 70C35.497 71.68 35.077 73.24 34.237 74.68C33.397 76.096 32.269 77.224 30.853 78.064C29.437 78.88 27.889 79.288 26.209 79.288C24.529 79.288 22.981 78.88 21.565 78.064C20.149 77.224 19.021 76.096 18.181 74.68C17.365 73.24 16.957 71.68 16.957 70V53.8ZM26.245 65.284C24.925 65.284 23.821 65.74 22.933 66.652C22.045 67.54 21.601 68.656 21.601 70C21.601 71.344 22.045 72.472 22.933 73.384C23.821 74.272 24.925 74.716 26.245 74.716C27.565 74.716 28.657 74.272 29.521 73.384C30.385 72.472 30.817 71.344 30.817 70C30.817 68.656 30.385 67.54 29.521 66.652C28.657 65.74 27.565 65.284 26.245 65.284ZM37.4882 69.532C37.4882 66.676 38.1962 64.528 39.6122 63.088C41.0282 61.648 42.8882 60.928 45.1922 60.928H45.4082V65.5H45.2282C44.1962 65.5 43.4282 65.824 42.9242 66.472C42.4202 67.12 42.1682 68.14 42.1682 69.532V79H37.4882V69.532ZM55.9829 79.288C54.3029 79.288 52.7549 78.88 51.3389 78.064C49.9229 77.224 48.7949 76.096 47.9549 74.68C47.1149 73.24 46.6949 71.68 46.6949 70C46.6949 68.32 47.1149 66.772 47.9549 65.356C48.7949 63.916 49.9229 62.788 51.3389 61.972C52.7549 61.132 54.3029 60.712 55.9829 60.712C57.6629 60.712 59.2109 61.132 60.6269 61.972C62.0429 62.788 63.1589 63.916 63.9749 65.356C64.8149 66.772 65.2349 68.32 65.2349 70V79H60.5549V77.092C60.2909 77.692 59.7149 78.208 58.8269 78.64C57.9389 79.072 56.9909 79.288 55.9829 79.288ZM56.0189 74.716C57.3389 74.716 58.4309 74.272 59.2949 73.384C60.1589 72.472 60.5909 71.344 60.5909 70C60.5909 68.656 60.1589 67.54 59.2949 66.652C58.4309 65.74 57.3389 65.284 56.0189 65.284C54.6989 65.284 53.5949 65.74 52.7069 66.652C51.8189 67.54 51.3749 68.656 51.3749 70C51.3749 71.344 51.8189 72.472 52.7069 73.384C53.5949 74.272 54.6989 74.716 56.0189 74.716ZM67.7577 69.532C67.7577 66.676 68.4657 64.528 69.8817 63.088C71.2977 61.648 73.1577 60.928 75.4617 60.928H75.6777V65.5H75.4977C74.4657 65.5 73.6977 65.824 73.1937 66.472C72.6897 67.12 72.4377 68.14 72.4377 69.532V79H67.7577V69.532ZM85.7676 86.2C83.9196 86.2 82.3116 85.672 80.9436 84.616C79.5996 83.56 78.6036 82.132 77.9556 80.332H83.1756C83.5356 80.764 83.8956 81.088 84.2556 81.304C84.6396 81.52 85.1436 81.628 85.7676 81.628C86.8476 81.628 87.6516 81.364 88.1796 80.836C88.7076 80.332 88.9716 79.636 88.9716 78.748V78.64C87.9396 79.072 86.8716 79.288 85.7676 79.288C83.3676 79.288 81.4476 78.556 80.0076 77.092C78.5676 75.604 77.8476 73.396 77.8476 70.468V61H82.5276V70.468C82.5276 71.932 82.7796 73.012 83.2836 73.708C83.8116 74.38 84.6396 74.716 85.7676 74.716C86.8956 74.716 87.7116 74.38 88.2156 73.708C88.7436 73.012 89.0076 71.932 89.0076 70.468V61H93.6876V78.1C93.6876 79.612 93.3396 80.98 92.6436 82.204C91.9716 83.452 91.0356 84.424 89.8356 85.12C88.6356 85.84 87.2796 86.2 85.7676 86.2Z" fill="white"/>
<g clip-path="url(#clip0_64_89)">
<mask id="mask0_64_89" style="mask-type:alpha" maskUnits="userSpaceOnUse" x="0" y="9" width="27" height="29">
<path d="M0 9.69189H26.9459V37.3388H0V9.69189Z" fill="#1E1D28"/>
</mask>
<g mask="url(#mask0_64_89)">
<path fill-rule="evenodd" clip-rule="evenodd" d="M13.473 15.4122C9.11743 15.4122 5.57479 19.0477 5.57479 23.5157C5.57479 27.9838 9.11743 31.6193 13.473 31.6193C17.8278 31.6193 21.3712 27.9838 21.3712 23.5157C21.3712 19.0477 17.8278 15.4122 13.473 15.4122ZM13.473 37.3388C6.04386 37.3388 -0.000488281 31.138 -0.000488281 23.5157C-0.000488281 15.8934 6.04386 9.69189 13.473 9.69189C20.9021 9.69189 26.9457 15.8934 26.9457 23.5157C26.9457 31.138 20.9021 37.3388 13.473 37.3388Z" fill="#FF7900"/>
</g>
<mask id="mask1_64_89" style="mask-type:alpha" maskUnits="userSpaceOnUse" x="57" y="0" width="23" height="38">
<path d="M57.1797 0H79.9999V37.3389H57.1797V0Z" fill="#1E1D28"/>
</mask>
<g mask="url(#mask1_64_89)">
<path fill-rule="evenodd" clip-rule="evenodd" d="M76.0598 29.4138C74.6454 30.7796 72.743 31.6189 70.6525 31.6189C66.2976 31.6189 62.7036 27.9834 62.7036 23.5153V0L57.1797 3.17726V23.5153C57.1797 31.1376 63.2241 37.3391 70.6525 37.3391C74.2805 37.3391 77.5756 35.8575 79.9999 33.4563L76.0598 29.4138Z" fill="#FF7900"/>
</g>
<path fill-rule="evenodd" clip-rule="evenodd" d="M70.6521 9.70082H51.2428L44.4638 27.5018L39.1158 13.3668H34.6944L29.371 27.4364L26.1476 18.8286L26.1469 18.8271C24.2713 13.5056 19.2983 9.69189 13.4733 9.69189C6.67464 9.69189 1.03567 14.8848 0.12793 21.6077L5.57508 23.5157C5.57508 19.0469 9.11772 15.4122 13.4733 15.4122C16.7235 15.4122 19.5212 17.4375 20.7316 20.3221C20.7352 20.331 20.741 20.3385 20.7446 20.3474L20.8771 20.695L27.1617 37.3388H31.5491L36.9043 23.1837L42.261 37.3388H46.6484L54.9418 15.4174L54.9382 15.4122H70.6521V9.70082Z" fill="#FF7900"/>
<mask id="mask2_64_89" style="mask-type:alpha" maskUnits="userSpaceOnUse" x="0" y="0" width="6" height="27">
<path d="M0 0H5.57882V26.5905H0V0Z" fill="#1E1D28"/>
</mask>
<g mask="url(#mask2_64_89)">
<path fill-rule="evenodd" clip-rule="evenodd" d="M5.5789 0H0V23.516C0 23.516 1.06048 27.4145 2.9896 26.4319C4.91873 25.4493 5.57528 23.516 5.57528 23.516L5.5789 0Z" fill="#FF7900"/>
</g>
</g>
<defs>
<clipPath id="clip0_64_89">
<rect width="80" height="38" fill="white"/>
</clipPath>
</defs>
</svg>
