<svg width="27" height="26" viewBox="0 0 27 26" fill="none" xmlns="http://www.w3.org/2000/svg">
<path d="M10.6985 0.0957031C4.97431 0.0957031 0.333008 4.539 0.333008 10.019C0.333008 15.499 4.97431 19.9423 10.6985 19.9423C12.8997 19.9423 14.9411 19.285 16.6191 18.1654L16.6203 18.1643L24.3078 25.5239C24.4505 25.6604 24.6773 25.6639 24.8237 25.5239L26.8956 23.5404C27.0382 23.4038 27.0309 23.1773 26.8943 23.0466L19.2079 15.6881C20.3774 14.0805 21.064 12.1262 21.064 10.019C21.064 4.539 16.4227 0.0957031 10.6985 0.0957031ZM10.6985 17.6074C6.32056 17.6074 2.77192 14.2101 2.77192 10.019C2.77192 5.82786 6.32061 2.4306 10.6985 2.4306C15.0763 2.4306 18.625 5.82786 18.625 10.019C18.625 14.2101 15.0764 17.6074 10.6985 17.6074Z" fill="white"/>
</svg>
